<?xml version="1.0" encoding="UTF-8"?>
<!DOCTYPE svg PUBLIC "-//W3C//DTD SVG 1.1//EN" "http://www.w3.org/Graphics/SVG/1.1/DTD/svg11.dtd">
<!-- Creator: CorelDRAW X5 -->
<svg xmlns="http://www.w3.org/2000/svg" xml:space="preserve" width="123.032mm" height="47.1466mm" style="shape-rendering:geometricPrecision; text-rendering:geometricPrecision; image-rendering:optimizeQuality; fill-rule:evenodd; clip-rule:evenodd"
viewBox="0 0 11018 4222"
 xmlns:xlink="http://www.w3.org/1999/xlink">
 <defs>
  <style type="text/css">
   <![CDATA[
    .str0 {stroke:#FEFEFE;stroke-width:315.934;stroke-linecap:round;stroke-linejoin:round}
    .fil2 {fill:none}
    .fil0 {fill:#82007D}
    .fil1 {fill:#FEFEFE;fill-rule:nonzero}
   ]]>
  </style>
 </defs>
 <g id="Ebene_x0020_1">
  <metadata id="CorelCorpID_0Corel-Layer"/>
  <path class="fil0" d="M314 0l10391 0c172,0 314,141 314,314l0 3595c0,172 -141,314 -314,314l-10391 0c-172,0 -314,-141 -314,-314l0 -3595c0,-172 141,-314 314,-314z"/>
  <path class="fil1" d="M4133 1055c0,20 -1,36 -3,50 -2,14 -4,25 -8,34 -3,8 -8,15 -12,19 -5,4 -11,6 -17,6l-328 0 0 1056c0,7 -2,13 -7,18 -4,6 -12,10 -22,13 -10,3 -24,6 -41,8 -17,2 -38,3 -64,3 -26,0 -47,-1 -64,-3 -17,-2 -31,-5 -41,-8 -10,-3 -18,-8 -22,-13 -4,-5 -7,-11 -7,-18l0 -1056 -328 0c-7,0 -12,-2 -17,-6 -5,-4 -9,-10 -12,-19 -3,-8 -6,-20 -8,-34 -1,-14 -2,-30 -2,-50 0,-20 1,-37 2,-51 2,-14 4,-26 8,-34 3,-9 8,-15 12,-18 4,-4 10,-6 17,-6l923 0c6,0 12,2 17,6 5,4 9,10 12,18 3,8 6,20 8,34 2,14 3,31 3,51zm1002 1166c0,7 -2,13 -6,18 -4,5 -11,9 -20,12 -9,3 -22,6 -39,8 -17,2 -37,3 -61,3 -25,0 -46,-1 -62,-3 -17,-2 -30,-4 -39,-8 -9,-3 -16,-8 -20,-12 -4,-5 -6,-11 -6,-18l0 -515c0,-44 -3,-78 -10,-103 -7,-25 -16,-46 -28,-64 -12,-18 -28,-31 -47,-41 -19,-10 -41,-15 -67,-15 -32,0 -65,12 -98,35 -33,24 -67,58 -103,103l0 600c0,7 -2,13 -6,18 -4,5 -11,9 -21,12 -10,3 -23,6 -39,8 -16,2 -37,3 -62,3 -25,0 -46,-1 -61,-3 -16,-2 -29,-4 -39,-8 -10,-3 -17,-8 -21,-12 -4,-5 -6,-11 -6,-18l0 -1331c0,-7 2,-13 6,-18 4,-6 11,-10 21,-13 10,-4 23,-7 39,-9 16,-2 37,-3 61,-3 25,0 46,1 62,3 16,2 29,5 39,9 10,3 17,8 21,13 4,6 6,11 6,18l0 499c44,-43 89,-75 134,-97 45,-21 93,-32 142,-32 61,0 113,10 155,30 42,20 76,48 102,83 26,35 45,76 56,123 12,47 17,104 17,171l0 553zm1084 -477c0,31 -7,54 -21,69 -14,15 -33,22 -57,22l-550 0c0,39 4,74 13,105 9,31 24,58 44,80 20,22 46,39 77,50 31,11 69,17 113,17 45,0 84,-3 117,-10 34,-7 63,-13 88,-21 25,-8 45,-15 61,-21 16,-7 29,-10 39,-10 6,0 11,1 15,3 4,2 8,7 10,13 2,6 4,15 6,26 1,11 1,25 1,42 0,15 0,28 -1,38 -1,10 -2,19 -3,27 -1,7 -3,13 -6,19 -3,5 -6,10 -11,15 -4,5 -16,11 -36,19 -20,8 -45,16 -75,24 -30,8 -65,15 -104,20 -39,6 -81,9 -126,9 -80,0 -151,-10 -211,-30 -60,-20 -111,-51 -151,-92 -40,-41 -70,-93 -91,-156 -20,-63 -30,-136 -30,-221 0,-80 10,-153 31,-217 21,-65 51,-119 91,-164 40,-45 88,-79 145,-103 57,-24 121,-36 193,-36 76,0 140,11 194,34 54,22 98,53 132,93 35,39 60,86 76,140 16,54 24,113 24,176l0 41zm-247 -73c2,-72 -12,-128 -43,-169 -31,-41 -78,-61 -142,-61 -32,0 -60,6 -84,18 -24,12 -44,29 -60,49 -16,21 -28,45 -37,73 -8,28 -13,58 -15,90l380 0zm1037 -268c0,25 -1,44 -2,60 -1,16 -3,28 -6,37 -2,9 -6,15 -10,18 -4,3 -10,5 -17,5 -5,0 -11,-1 -18,-3 -7,-2 -15,-5 -23,-8 -9,-3 -18,-5 -28,-8 -10,-2 -21,-3 -34,-3 -14,0 -28,3 -42,8 -14,6 -29,15 -44,27 -15,12 -31,28 -48,49 -17,20 -34,45 -53,75l0 563c0,7 -2,13 -6,18 -4,5 -11,9 -21,12 -10,3 -23,6 -39,8 -16,2 -37,3 -62,3 -25,0 -46,-1 -61,-3 -16,-2 -29,-4 -39,-8 -10,-3 -17,-8 -21,-12 -4,-5 -6,-11 -6,-18l0 -903c0,-7 2,-13 5,-18 3,-5 9,-9 18,-13 9,-3 20,-6 34,-8 14,-2 31,-2 52,-2 21,0 39,1 54,2 14,2 25,4 33,8 8,3 13,8 17,13 3,5 5,11 5,18l0 112c23,-34 46,-61 67,-83 21,-22 41,-39 60,-52 19,-13 38,-22 57,-27 19,-5 38,-8 57,-8 9,0 18,1 28,2 10,1 21,2 31,5 11,2 20,5 28,8 8,3 14,6 18,9 3,3 6,7 8,11 2,4 3,9 4,17 1,7 2,18 3,32 1,14 1,34 1,58zm1593 819c0,7 -2,13 -6,18 -4,5 -11,9 -20,12 -9,3 -22,6 -38,8 -16,2 -37,3 -62,3 -26,0 -47,-1 -63,-3 -16,-2 -29,-4 -39,-8 -10,-3 -17,-8 -20,-12 -4,-5 -6,-11 -6,-18l0 -535c0,-30 -3,-58 -9,-83 -6,-25 -15,-46 -26,-64 -12,-18 -27,-31 -45,-41 -18,-10 -39,-15 -64,-15 -30,0 -61,12 -92,35 -31,24 -65,58 -101,103l0 600c0,7 -2,13 -6,18 -4,5 -11,9 -21,12 -10,3 -23,6 -39,8 -16,2 -36,3 -61,3 -25,0 -46,-1 -61,-3 -16,-2 -29,-4 -39,-8 -10,-3 -17,-8 -21,-12 -4,-5 -6,-11 -6,-18l0 -535c0,-30 -3,-58 -9,-83 -6,-25 -14,-46 -26,-64 -11,-18 -26,-31 -44,-41 -18,-10 -40,-15 -64,-15 -31,0 -62,12 -93,35 -31,24 -64,58 -100,103l0 600c0,7 -2,13 -6,18 -4,5 -11,9 -21,12 -10,3 -23,6 -39,8 -16,2 -37,3 -62,3 -25,0 -46,-1 -61,-3 -16,-2 -29,-4 -39,-8 -10,-3 -17,-8 -21,-12 -4,-5 -6,-11 -6,-18l0 -903c0,-7 2,-13 5,-18 3,-5 9,-9 18,-13 9,-3 20,-6 34,-8 14,-2 31,-2 52,-2 21,0 39,1 54,2 14,2 25,4 33,8 8,3 13,8 17,13 3,5 5,11 5,18l0 104c50,-54 100,-95 149,-122 50,-27 102,-40 155,-40 37,0 70,4 100,12 30,8 56,19 79,33 23,15 43,32 60,52 17,20 31,43 42,68 27,-29 54,-54 79,-75 26,-21 52,-38 77,-51 25,-13 50,-23 76,-29 25,-7 51,-10 77,-10 60,0 111,10 152,30 41,20 75,48 100,83 25,35 43,75 54,122 11,47 16,96 16,148l0 578zm933 -144c0,18 -1,32 -2,44 -1,12 -2,22 -4,30 -2,8 -4,15 -6,20 -2,5 -8,12 -16,19 -8,8 -22,17 -42,28 -19,11 -42,21 -67,30 -25,9 -52,16 -82,21 -29,6 -59,8 -91,8 -69,0 -131,-11 -185,-32 -54,-22 -98,-54 -135,-96 -36,-42 -64,-94 -82,-154 -19,-61 -28,-130 -28,-208 0,-91 11,-169 34,-235 23,-66 54,-120 95,-163 40,-43 88,-75 144,-96 55,-21 116,-31 182,-31 27,0 54,2 79,7 26,4 50,11 73,19 23,8 43,17 61,27 18,10 30,19 38,26 7,8 13,14 16,19 3,5 6,11 7,20 2,8 3,18 4,30 1,12 1,26 1,43 0,39 -3,67 -10,83 -7,16 -16,23 -26,23 -12,0 -24,-4 -37,-14 -13,-9 -28,-20 -46,-31 -18,-12 -38,-22 -63,-31 -25,-10 -54,-14 -87,-14 -66,0 -117,25 -152,76 -35,51 -53,126 -53,224 0,48 4,91 13,129 9,37 22,68 39,93 17,25 39,44 65,56 26,12 56,19 91,19 35,0 65,-5 91,-16 25,-10 47,-22 66,-35 19,-13 35,-25 48,-35 13,-11 24,-16 32,-16 6,0 11,2 15,5 4,3 7,10 10,19 2,9 4,21 6,35 1,14 2,32 2,55zm941 147c0,10 -3,17 -10,22 -7,5 -17,9 -32,11 -15,2 -36,4 -64,4 -30,0 -53,-1 -66,-4 -14,-2 -23,-6 -29,-11 -6,-6 -9,-13 -9,-22l0 -72c-37,40 -79,71 -127,93 -48,22 -101,33 -159,33 -48,0 -92,-6 -132,-19 -40,-12 -75,-31 -104,-56 -29,-25 -52,-55 -68,-92 -16,-37 -24,-79 -24,-127 0,-53 10,-98 31,-137 21,-39 51,-71 92,-96 41,-25 92,-44 152,-56 61,-12 131,-18 211,-18l88 0 0 -55c0,-28 -3,-53 -9,-74 -6,-21 -15,-39 -28,-53 -13,-14 -31,-25 -53,-31 -22,-7 -49,-10 -82,-10 -42,0 -80,4 -114,14 -33,9 -63,20 -88,31 -26,11 -47,22 -64,31 -17,10 -31,14 -42,14 -7,0 -14,-2 -20,-7 -6,-5 -10,-11 -14,-20 -3,-9 -7,-19 -9,-32 -2,-13 -3,-27 -3,-43 0,-21 1,-37 5,-49 3,-12 10,-23 19,-33 9,-10 26,-21 49,-32 24,-12 51,-23 83,-33 31,-10 66,-18 104,-25 37,-7 76,-10 116,-10 71,0 132,7 182,21 50,14 92,35 124,64 32,29 56,66 71,111 15,45 22,99 22,161l0 607zm-250 -387l-97 0c-41,0 -76,3 -105,9 -29,6 -53,15 -71,27 -18,12 -31,27 -40,44 -8,17 -12,37 -12,59 0,38 12,68 36,89 24,22 57,32 99,32 36,0 69,-9 99,-27 30,-18 60,-45 92,-80l0 -154z"/>
  <g id="_509164624">
   <g>
    <path class="fil2 str0" d="M2650 3658c450,-558 458,-1017 27,-1571 -440,-567 -499,-965 -21,-1578"/>
    <path class="fil0" d="M2624 268l288 223c-23,25 -91,74 -114,99 57,-98 -151,-265 -229,-212l55 -111z"/>
    <path class="fil0" d="M2685 3905l-288 -223c23,-25 91,-74 114,-99 -57,98 151,265 229,212l-55 111z"/>
   </g>
   <g>
    <path class="fil2 str0" d="M1811 3658c450,-558 458,-1017 27,-1571 -440,-567 -499,-965 -21,-1578"/>
    <path class="fil0" d="M1785 268l288 223c-23,25 -91,74 -114,99 57,-98 -151,-265 -229,-212l55 -111z"/>
    <path class="fil0" d="M1846 3905l-288 -223c23,-25 91,-74 114,-99 -57,98 151,265 229,212l-55 111z"/>
   </g>
   <g>
    <path class="fil2 str0" d="M972 3658c450,-558 458,-1017 27,-1571 -440,-567 -499,-965 -21,-1578"/>
    <path class="fil0" d="M946 268l288 223c-23,25 -91,74 -114,99 57,-98 -151,-265 -229,-212l55 -111z"/>
    <path class="fil0" d="M1007 3905l-288 -223c23,-25 91,-74 114,-99 -57,98 151,265 229,212l-55 111z"/>
   </g>
  </g>
 </g>
</svg>
